# xmcd
#
# Track frame offsets:
#	150
#	14575
#	31125
#	47725
#	69700
#	90100
#
# Disc length: 1608 seconds
#
# Revision: 1
# Processed by: cddbd v1.5.1PL2 Copyright (c) Steve Scherf et al.
# Submitted via: audiograbber 1.83.01
#
DISCID=41064606
DTITLE=TAMEKA STARR - GOING IN CIRCLES [CDS0
DYEAR=1999
DGENRE=R&B
TTITLE0=GOING IN CIRCLES (THE L.T.J. SOUL INVENTION SINGLE MIX)
TTITLE1=GOING IN CIRCLES (SOULCIETY MIX)
TTITLE2=GOING IN CIRCLES (FELIX DA SOULCAT REMIX)
TTITLE3=GOING IN CIRCLES (THE L.T.J. SOUL INVENTION EXTENDED MIX)
TTITLE4=GOING IN CIRCLES (SPARKLING REFRESHMENT REMIX)
TTITLE5=GOING IN CIRCLES (CRISTIAN TAUBER REMIX)
EXTD=
EXTT0=
EXTT1=
EXTT2=
EXTT3=
EXTT4=
EXTT5=
PLAYORDER=
